<?xml version="1.0" encoding="UTF-8" standalone="no"?>
<!DOCTYPE svg PUBLIC "-//W3C//DTD SVG 1.1//EN" "http://www.w3.org/Graphics/SVG/1.1/DTD/svg11.dtd">
<svg width="100%" height="100%" viewBox="0 0 730 675" version="1.1" xmlns="http://www.w3.org/2000/svg" xmlns:xlink="http://www.w3.org/1999/xlink" xml:space="preserve" xmlns:serif="http://www.serif.com/" style="fill-rule:evenodd;clip-rule:evenodd;stroke-linejoin:round;stroke-miterlimit:2;">
    <g transform="matrix(4.16667,0,0,4.16667,0,0)">
        <path d="M87.879,140.157C116.382,140.157 139.63,137.574 139.63,134.407C139.63,131.24 116.382,128.657 87.879,128.657C59.377,128.657 36.13,131.24 36.13,134.407C36.13,137.574 59.377,140.157 87.879,140.157Z" style="fill:rgb(216,210,201);"/>
        <g>
            <path d="M78.686,72.9C78.686,72.9 82.315,75.672 84.684,80.813C87.053,85.955 88.336,94.289 88.336,94.289C88.336,94.289 91.697,97.598 92.516,99.246C93.085,100.392 92.768,101.028 92.032,100.234C91.72,99.897 91.125,98.939 90.677,98.578C90.998,99.098 92.445,101.585 91.756,101.979C91.068,102.373 90.973,101.163 89.38,99.296C90.211,100.695 91.115,102.51 90.492,102.969C89.869,103.428 88.857,100.59 88.316,100.002C88.66,100.869 89.264,103.094 88.412,103.127C87.559,103.159 87.163,100.901 86.629,100.243L85.002,98.438C84.834,98.615 84.447,100.18 84.2,100.373C83.959,100.56 83.61,100.506 83.362,99.651C82.969,98.241 83.978,95.883 83.978,95.883C83.228,87.638 80.732,83.643 75.105,78.792C74.155,77.972 72.874,75.392 74.253,73.578C75.632,71.764 77.499,71.841 78.686,72.9Z" style="fill:rgb(248,187,136);"/>
            <path d="M88.893,94.851C89.883,95.867 91.906,98.017 92.516,99.246C93.085,100.392 92.768,101.028 92.032,100.234C91.72,99.897 91.125,98.939 90.677,98.578C90.998,99.098 92.445,101.585 91.756,101.979C91.068,102.373 90.973,101.163 89.38,99.296C90.211,100.695 91.115,102.51 90.492,102.969C90.06,103.282 89.412,102 88.916,100.984C88.592,100.323 88.543,100.207 88.642,101.01C88.765,102.008 89.025,103.113 88.412,103.127C87.559,103.159 87.163,100.901 86.629,100.243L85.232,98.693C86.087,96.961 87.826,95.581 88.893,94.851Z" style="fill:rgb(242,171,113);"/>
            <path d="M78.686,72.9C78.686,72.9 82.315,75.672 84.684,80.813C81.735,79.585 79.572,81.596 78.85,82.454C77.794,81.232 76.553,80.04 75.105,78.792C74.155,77.972 72.874,75.392 74.253,73.578C75.632,71.764 77.499,71.841 78.686,72.9Z" style="fill:rgb(242,171,113);"/>
            <path d="M82.114,75.516C80.436,77.641 77.633,79.719 75.055,80.424L76.272,82.027C78.786,80.886 81.138,79.839 83.214,77.485C83.023,76.981 82.529,76.118 82.114,75.516Z" style="fill:rgb(212,52,41);"/>
            <path d="M82.114,75.516C81.283,77.285 77.939,79.516 75.435,80.298C71.587,77.518 69.311,71.499 73.761,70.364C76.293,69.719 80.108,72.143 82.114,75.516Z" style="fill:rgb(241,115,77);"/>
            <path d="M58.417,127.37C58.417,127.37 58.768,111.867 58.489,104.075C58.211,96.283 64.379,96.14 65.779,99.268C67.179,102.395 65.719,110.793 65.208,116.197C64.697,121.601 64.186,127.37 64.186,127.37C64.753,130.138 60.801,130.821 59.312,130.06C57.823,129.299 58.417,127.37 58.417,127.37Z" style="fill:rgb(248,187,136);"/>
            <path d="M58.595,113.321C58.604,109.956 58.58,106.608 58.489,104.075C58.211,96.283 64.379,96.14 65.779,99.268C67.01,102.016 66.031,108.832 65.429,114.111C62.923,114.023 60.636,113.727 58.595,113.321Z" style="fill:rgb(242,171,113);"/>
            <path d="M58.321,127.645C58.321,127.645 58.206,125.457 58.251,122.64C59.879,122.67 62.644,122.725 64.86,122.72C64.613,125.429 64.226,127.624 64.226,127.624C64.794,130.392 60.801,130.821 59.312,130.06C57.823,129.299 58.321,127.645 58.321,127.645Z" style="fill:rgb(252,226,217);"/>
            <path d="M58.417,127.37C57.856,127.486 55.613,130.824 55.874,133.073L66.398,133.073C66.398,133.073 66.606,130.502 64.186,127.37C63.57,129.828 59.879,130.011 58.897,129.447C57.915,128.883 58.417,127.37 58.417,127.37Z" style="fill:rgb(212,52,41);"/>
            <path d="M56.073,132.939L66.232,132.939C66.56,132.939 66.828,133.207 66.828,133.534L66.828,133.535C66.828,133.862 66.56,134.13 66.232,134.13L56.073,134.13C55.745,134.13 55.477,133.862 55.477,133.535L55.477,133.534C55.477,133.207 55.745,132.939 56.073,132.939Z" style="fill:rgb(173,34,39);"/>
            <path d="M58.321,127.645C58.136,127.745 57.904,127.676 57.804,127.49C57.704,127.304 57.774,127.072 57.959,126.972C58.573,126.642 59.935,126.397 61.389,126.448C62.519,126.487 63.722,126.703 64.698,127.192C64.886,127.286 64.962,127.516 64.869,127.704C64.775,127.892 64.545,127.968 64.357,127.874C63.489,127.44 62.398,127.247 61.365,127.211C60.041,127.165 58.837,127.369 58.321,127.645Z" style="fill:rgb(212,52,41);"/>
            <path d="M76.956,126.806C76.956,126.806 76.605,111.867 76.883,104.075C77.161,96.283 70.993,96.14 69.593,99.268C68.193,102.395 69.653,110.793 70.164,116.197C70.675,121.601 71.187,127.37 71.187,127.37C72.412,129.792 75.511,130.525 78.466,130.23C80.265,130.05 80.951,129.623 80.988,129.348C80.459,128.66 78.325,127.618 76.956,126.806Z" style="fill:rgb(248,187,136);"/>
            <path d="M76.777,113.084C76.769,109.831 76.793,106.583 76.883,104.075C77.161,96.283 70.993,96.14 69.593,99.268C68.368,102.004 69.332,108.773 69.935,114.043C72.094,113.901 74.38,113.597 76.777,113.084Z" style="fill:rgb(242,171,113);"/>
            <path d="M77.209,126.829C77.209,126.829 77.172,125.225 77.131,122.795C75.065,122.81 72.568,122.813 70.566,122.802C70.809,125.469 71.014,127.521 71.014,127.521C72.24,129.943 75.511,130.525 78.466,130.23C80.265,130.05 80.951,129.623 80.988,129.348C80.459,128.66 78.579,127.641 77.209,126.829Z" style="fill:rgb(252,226,217);"/>
            <path d="M71.187,127.37C71.187,127.37 70.186,128.082 69.952,129.881C69.719,131.679 70.182,133.101 70.182,133.101L82.278,133.562L83.661,132.939C83.661,132.939 84.295,132.151 83.279,130.969C82.263,129.786 80.988,129.348 80.988,129.348C80.951,129.623 80.265,130.05 78.466,130.23C75.511,130.525 72.412,129.792 71.187,127.37Z" style="fill:rgb(212,52,41);"/>
            <path d="M70.991,127.76C70.811,127.868 70.576,127.81 70.468,127.629C70.359,127.448 70.418,127.213 70.599,127.105C71.318,126.674 72.727,126.35 74.099,126.2C75.515,126.046 76.927,126.077 77.545,126.367C77.735,126.456 77.818,126.684 77.729,126.875C77.64,127.066 77.412,127.148 77.221,127.059C76.731,126.829 75.477,126.819 74.179,126.961C72.902,127.1 71.613,127.388 70.991,127.76Z" style="fill:rgb(212,52,41);"/>
            <path d="M70.182,132.939L83.523,132.939C83.851,132.939 84.119,133.207 84.119,133.535C84.119,133.862 83.85,134.13 83.523,134.13L70.182,134.13C69.855,134.13 69.586,133.862 69.586,133.535C69.586,133.207 69.854,132.939 70.182,132.939Z" style="fill:rgb(173,34,39);"/>
            <path d="M56.174,73.484C56.174,73.484 52.515,76.278 50.127,81.461C47.739,86.643 46.447,95.044 46.447,95.044C46.447,95.044 43.058,98.379 42.233,100.041C41.66,101.196 41.979,101.838 42.721,101.036C43.035,100.697 43.635,99.731 44.087,99.367C43.763,99.892 42.305,102.399 42.999,102.796C43.693,103.193 43.789,101.973 45.394,100.092C44.556,101.502 43.645,103.331 44.273,103.794C44.901,104.257 45.922,101.395 46.466,100.804C46.12,101.677 45.511,103.92 46.37,103.953C47.23,103.986 47.629,101.709 48.167,101.046L49.807,99.226C49.976,99.405 50.366,100.982 50.616,101.177C50.859,101.366 51.21,101.312 51.46,100.449C51.856,99.028 50.839,96.651 50.839,96.651C51.595,88.34 54.111,84.313 59.783,79.423C60.741,78.597 62.032,75.996 60.642,74.168C59.252,72.339 57.37,72.416 56.174,73.484Z" style="fill:rgb(248,187,136);"/>
            <path d="M56.174,73.484C56.174,73.484 52.515,76.278 50.127,81.461C53.1,80.222 55.28,82.249 56.008,83.114C57.073,81.883 58.324,80.681 59.783,79.423C60.741,78.597 62.032,75.996 60.642,74.168C59.252,72.339 57.37,72.416 56.174,73.484Z" style="fill:rgb(242,171,113);"/>
            <path d="M52.718,76.121C54.41,78.263 57.235,80.358 59.834,81.069L58.607,82.685C56.073,81.534 53.702,80.479 51.609,78.106C51.802,77.597 52.3,76.728 52.718,76.121Z" style="fill:rgb(212,52,41);"/>
            <path d="M52.718,76.121C53.556,77.904 56.926,80.153 59.45,80.941C63.329,78.139 65.624,72.072 61.138,70.928C58.586,70.278 54.74,72.721 52.718,76.121Z" style="fill:rgb(241,115,77);"/>
            <path d="M63.884,63.977L69.127,64.892L69.569,70.1L66.719,70.685L63.735,70.608L63.884,63.977Z" style="fill:rgb(226,151,85);"/>
            <path d="M59.654,72.061C61.324,70.528 64.372,69.834 67.203,69.642C71.86,69.326 74.792,70.129 76.614,74.705C79.918,83.005 83.103,101.247 84.321,109.296C78.894,113.551 56.064,113.996 51.61,109.643C51.906,104.479 56.891,74.595 59.654,72.061Z" style="fill:rgb(241,115,77);"/>
            <path d="M84.362,109.58C78.353,113.381 57.321,114.026 51.526,110.109L51.729,108.301C59.773,112.129 76.573,111.577 84.047,107.524L84.362,109.58Z" style="fill:rgb(212,52,41);"/>
            <path d="M61.165,70.378C63.244,69.673 65.245,69.435 67.178,69.366C68.789,69.308 72.627,69.843 73.844,70.432C72.981,71.553 67.868,72.047 65.82,72.047C63.772,72.047 61.854,71.051 61.165,70.378Z" style="fill:rgb(226,151,85);"/>
            <path d="M58.912,70.865C59.883,70.439 61.192,69.992 62.209,69.899C63.011,72.489 70.157,73.08 71.503,69.666C72.309,69.753 73.308,69.885 74.299,70.195C72.255,75.795 62.017,75.975 58.912,70.865Z" style="fill:rgb(212,52,41);"/>
            <path d="M72.141,28.2C72.141,28.2 70.689,21.978 61.034,21.941C51.379,21.904 44.532,30.421 43.559,40.231C42.908,46.804 44.979,50.619 44.962,55.037C44.949,58.213 43.984,60.894 42.425,62.73C41.053,64.345 39.679,64.412 42.481,64.905C43.288,65.047 44.101,65.101 44.919,65.065C48.558,64.905 52.301,62.958 56.039,58.983C62.458,52.158 72.141,28.2 72.141,28.2Z" style="fill:rgb(128,56,35);"/>
            <path d="M59.615,30.184L59.176,27.798C61.756,26.489 69.833,25.805 71.979,25.973L72.523,28.607C71.283,29.02 59.615,30.184 59.615,30.184Z" style="fill:rgb(0,141,131);"/>
            <path d="M51.093,55.583C46.944,54.877 47.156,48.946 50.687,48.606C49.665,38.809 57.17,30.007 69.533,30.273C78.088,30.458 86.701,36.037 87.309,46.345C87.718,53.265 86.592,59.913 83.408,63.891C75.651,73.583 53.312,68.009 51.093,55.583Z" style="fill:rgb(248,187,136);"/>
            <path d="M51.093,55.583C49.977,55.589 49.268,54.798 48.762,54.216C49.892,54.77 51.079,54.973 52.478,54.327C53.703,65.989 72.549,71.663 80.92,66.185C71.706,72.498 53.108,66.865 51.093,55.583Z" style="fill:rgb(242,171,113);"/>
            <path d="M60.566,50.35C62.467,48.945 65.698,49.301 66.638,50.807C67.681,52.477 67.82,50.843 66.966,49.86C66.239,49.022 64.937,48.478 63.736,48.532C62.376,48.592 60.38,49.184 59.769,50.664C59.443,51.456 60.032,50.745 60.566,50.35Z" style="fill:rgb(73,43,41);"/>
            <path d="M75.228,56.462C74.623,59.041 70.572,58.183 70.7,56.257C71.141,56.502 71.657,56.852 72.551,56.975C73.319,57.081 74.438,57.03 75.228,56.462Z" style="fill:rgb(232,160,99);"/>
            <path d="M50.615,52.339C50.615,52.339 50.303,51.386 51.157,51.357C51.601,51.341 51.777,51.762 51.837,52.164C51.892,52.536 51.849,52.891 51.829,52.871C51.829,52.871 51.747,52.685 51.616,52.486C51.374,52.117 50.967,51.701 50.615,52.339Z" style="fill:rgb(242,171,113);"/>
            <path d="M60.53,52.731C63.357,53.768 65.054,56.225 64.318,58.219C63.581,60.213 60.69,60.987 57.863,59.95C55.036,58.913 53.338,56.456 54.075,54.462C54.811,52.468 57.703,51.694 60.53,52.731Z" style="fill:rgb(248,187,136);"/>
            <path d="M60.455,52.758C63.22,53.771 64.881,56.173 64.161,58.123C63.441,60.073 60.614,60.83 57.849,59.817C55.084,58.803 53.423,56.401 54.143,54.451C54.863,52.502 57.69,51.744 60.455,52.758Z" style="fill:rgb(247,186,136);"/>
            <path d="M60.38,52.785C63.083,53.775 64.707,56.122 64.004,58.027C63.301,59.933 60.538,60.673 57.835,59.683C55.132,58.693 53.508,56.346 54.211,54.441C54.914,52.536 57.677,51.795 60.38,52.785Z" style="fill:rgb(247,185,136);"/>
            <path d="M60.305,52.812C62.946,53.778 64.533,56.071 63.847,57.931C63.16,59.792 60.461,60.516 57.821,59.55C55.18,58.583 53.593,56.291 54.279,54.43C54.965,52.569 57.664,51.846 60.305,52.812Z" style="fill:rgb(246,183,134);"/>
            <path d="M60.23,52.839C62.808,53.782 64.359,56.019 63.689,57.835C63.02,59.652 60.385,60.359 57.807,59.416C55.228,58.473 53.678,56.236 54.347,54.419C55.016,52.603 57.651,51.896 60.23,52.839Z" style="fill:rgb(246,182,134);"/>
            <path d="M60.155,52.866C62.672,53.786 64.185,55.968 63.533,57.74C62.88,59.512 60.309,60.202 57.793,59.282C55.277,58.363 53.763,56.181 54.416,54.409C55.068,52.636 57.639,51.947 60.155,52.866Z" style="fill:rgb(246,180,132);"/>
            <path d="M60.08,52.893C62.534,53.789 64.011,55.916 63.376,57.644C62.74,59.372 60.233,60.044 57.779,59.149C55.325,58.253 53.848,56.126 54.484,54.398C55.119,52.67 57.626,51.997 60.08,52.893Z" style="fill:rgb(247,180,133);"/>
            <path d="M60.005,52.92C62.397,53.793 63.837,55.865 63.219,57.548C62.6,59.232 60.157,59.888 57.765,59.016C55.373,58.143 53.933,56.071 54.552,54.387C55.171,52.704 57.613,52.048 60.005,52.92Z" style="fill:rgb(245,177,131);"/>
            <path d="M59.93,52.948C62.26,53.796 63.664,55.813 63.062,57.452C62.46,59.091 60.081,59.731 57.751,58.882C55.422,58.033 54.018,56.016 54.62,54.377C55.222,52.738 57.601,52.099 59.93,52.948Z" style="fill:rgb(245,177,130);"/>
            <path d="M59.855,52.975C62.123,53.8 63.49,55.762 62.905,57.356C62.319,58.951 60.005,59.573 57.737,58.748C55.47,57.923 54.103,55.961 54.688,54.366C55.273,52.772 57.588,52.149 59.855,52.975Z" style="fill:rgb(245,176,129);"/>
            <path d="M59.781,53.002C61.986,53.803 63.316,55.71 62.748,57.261C62.18,58.811 59.929,59.416 57.724,58.615C55.518,57.813 54.189,55.906 54.756,54.355C55.325,52.805 57.575,52.2 59.781,53.002Z" style="fill:rgb(245,174,129);"/>
            <path d="M59.706,53.028C61.849,53.807 63.142,55.659 62.591,57.164C62.04,58.671 59.853,59.259 57.71,58.481C55.566,57.702 54.274,55.85 54.825,54.344C55.376,52.839 57.562,52.25 59.706,53.028Z" style="fill:rgb(245,173,128);"/>
            <path d="M59.631,53.055C61.712,53.81 62.968,55.607 62.434,57.069C61.899,58.53 59.777,59.102 57.696,58.347C55.614,57.592 54.358,55.795 54.892,54.334C55.427,52.872 57.549,52.301 59.631,53.055Z" style="fill:rgb(245,171,127);"/>
            <path d="M59.556,53.083C61.575,53.814 62.795,55.556 62.277,56.973C61.759,58.39 59.701,58.945 57.682,58.214C55.663,57.482 54.444,55.74 54.961,54.323C55.479,52.906 57.537,52.351 59.556,53.083Z" style="fill:rgb(244,170,127);"/>
            <path d="M59.481,53.11C61.438,53.817 62.621,55.504 62.12,56.877C61.619,58.25 59.625,58.788 57.668,58.08C55.711,57.372 54.529,55.685 55.029,54.312C55.53,52.94 57.524,52.402 59.481,53.11Z" style="fill:rgb(244,168,126);"/>
            <path d="M59.406,53.137C61.301,53.821 62.446,55.453 61.963,56.781C61.479,58.11 59.549,58.631 57.654,57.946C55.759,57.262 54.613,55.63 55.097,54.302C55.581,52.973 57.511,52.452 59.406,53.137Z" style="fill:rgb(244,168,125);"/>
            <path d="M59.331,53.164C61.164,53.824 62.273,55.401 61.806,56.685C61.339,57.969 59.473,58.473 57.64,57.813C55.808,57.152 54.699,55.575 55.166,54.291C55.633,53.007 57.499,52.503 59.331,53.164Z" style="fill:rgb(243,166,124);"/>
            <path d="M59.256,53.191C61.027,53.828 62.099,55.35 61.649,56.589C61.199,57.829 59.397,58.316 57.626,57.679C55.856,57.042 54.784,55.52 55.233,54.28C55.684,53.041 57.486,52.554 59.256,53.191Z" style="fill:rgb(243,164,124);"/>
            <path d="M59.182,53.218C60.89,53.832 61.925,55.298 61.492,56.493C61.059,57.689 59.321,58.159 57.613,57.545C55.904,56.932 54.869,55.465 55.302,54.27C55.735,53.074 57.473,52.604 59.182,53.218Z" style="fill:rgb(244,163,122);"/>
            <path d="M59.106,53.245C60.753,53.835 61.751,55.247 61.335,56.397C60.919,57.549 59.245,58.002 57.599,57.412C55.953,56.821 54.954,55.41 55.37,54.259C55.786,53.108 57.46,52.655 59.106,53.245Z" style="fill:rgb(244,162,121);"/>
            <path d="M59.031,53.272C60.615,53.839 61.577,55.195 61.178,56.302C60.778,57.408 59.169,57.845 57.584,57.278C56,56.712 55.039,55.355 55.438,54.248C55.837,53.142 57.447,52.705 59.031,53.272Z" style="fill:rgb(243,160,120);"/>
            <path d="M58.957,53.299C60.479,53.842 61.404,55.144 61.021,56.206C60.639,57.268 59.093,57.688 57.571,57.145C56.049,56.601 55.124,55.3 55.507,54.238C55.89,53.176 57.435,52.756 58.957,53.299Z" style="fill:rgb(243,158,120);"/>
            <path d="M58.882,53.326C60.341,53.846 61.23,55.092 60.864,56.11C60.498,57.128 59.017,57.531 57.557,57.011C56.097,56.491 55.209,55.245 55.575,54.227C55.941,53.209 57.422,52.806 58.882,53.326Z" style="fill:rgb(243,157,119);"/>
            <path d="M58.807,53.353C60.205,53.849 61.056,55.041 60.707,56.014C60.358,56.988 58.941,57.373 57.543,56.877C56.146,56.381 55.294,55.19 55.643,54.216C55.992,53.243 57.409,52.857 58.807,53.353Z" style="fill:rgb(242,156,117);"/>
            <path d="M58.732,53.38C60.068,53.853 60.883,54.989 60.55,55.918C60.218,56.847 58.865,57.216 57.529,56.744C56.194,56.271 55.379,55.135 55.711,54.206C56.044,53.276 57.397,52.907 58.732,53.38Z" style="fill:rgb(242,154,116);"/>
            <path d="M58.657,53.407C59.93,53.856 60.709,54.938 60.393,55.822C60.078,56.707 58.789,57.059 57.515,56.61C56.242,56.161 55.464,55.08 55.779,54.195C56.095,53.31 57.383,52.958 58.657,53.407Z" style="fill:rgb(242,153,117);"/>
            <path d="M58.583,53.434C59.794,53.86 60.535,54.886 60.237,55.726C59.938,56.567 58.713,56.902 57.502,56.477C56.29,56.051 55.549,55.025 55.848,54.184C56.146,53.344 57.371,53.009 58.583,53.434Z" style="fill:rgb(241,151,114);"/>
            <path d="M58.507,53.461C59.656,53.864 60.361,54.835 60.079,55.631C59.797,56.427 58.637,56.745 57.488,56.343C56.339,55.941 55.634,54.969 55.915,54.174C56.197,53.378 57.358,53.059 58.507,53.461Z" style="fill:rgb(240,150,113);"/>
            <path d="M58.432,53.488C59.519,53.867 60.187,54.783 59.922,55.535C59.657,56.286 58.561,56.588 57.474,56.209C56.387,55.83 55.719,54.914 55.984,54.163C56.248,53.411 57.345,53.11 58.432,53.488Z" style="fill:rgb(240,149,113);"/>
            <path d="M58.358,53.515C59.382,53.871 60.013,54.732 59.765,55.439C59.518,56.146 58.485,56.431 57.46,56.076C56.435,55.721 55.804,54.859 56.052,54.152C56.3,53.445 57.333,53.16 58.358,53.515Z" style="fill:rgb(240,147,112);"/>
            <path d="M58.283,53.542C59.245,53.874 59.839,54.68 59.608,55.343C59.377,56.006 58.408,56.274 57.446,55.942C56.483,55.611 55.889,54.804 56.12,54.142C56.351,53.479 57.32,53.211 58.283,53.542Z" style="fill:rgb(240,146,111);"/>
            <path d="M58.208,53.569C59.108,53.877 59.665,54.629 59.451,55.247C59.237,55.865 58.333,56.116 57.432,55.808C56.532,55.5 55.974,54.749 56.188,54.131C56.402,53.512 57.307,53.261 58.208,53.569Z" style="fill:rgb(240,145,110);"/>
            <path d="M58.133,53.596C58.971,53.881 59.492,54.577 59.295,55.151C59.097,55.725 58.257,55.959 57.418,55.675C56.58,55.39 56.059,54.694 56.257,54.12C56.454,53.546 57.294,53.312 58.133,53.596Z" style="fill:rgb(240,143,110);"/>
            <path d="M58.058,53.623C58.834,53.885 59.318,54.525 59.137,55.055C58.957,55.585 58.181,55.802 57.404,55.541C56.628,55.28 56.144,54.639 56.325,54.109C56.505,53.58 57.281,53.362 58.058,53.623Z" style="fill:rgb(239,142,109);"/>
            <path d="M57.983,53.65C58.697,53.888 59.144,54.474 58.98,54.959C58.817,55.444 58.105,55.645 57.39,55.407C56.676,55.17 56.229,54.584 56.393,54.099C56.556,53.613 57.269,53.413 57.983,53.65Z" style="fill:rgb(238,140,108);"/>
            <path d="M57.908,53.678C58.56,53.892 58.97,54.423 58.823,54.864C58.677,55.305 58.028,55.488 57.376,55.274C56.725,55.06 56.314,54.529 56.461,54.088C56.608,53.647 57.256,53.464 57.908,53.678Z" style="fill:rgb(239,138,106);"/>
            <path d="M57.833,53.705C58.423,53.895 58.796,54.371 58.666,54.768C58.537,55.164 57.952,55.331 57.363,55.141C56.773,54.95 56.399,54.474 56.529,54.077C56.659,53.681 57.243,53.514 57.833,53.705Z" style="fill:rgb(238,138,106);"/>
            <path d="M57.759,53.732C58.286,53.899 58.623,54.32 58.51,54.672C58.397,55.024 57.877,55.174 57.349,55.007C56.821,54.84 56.485,54.419 56.598,54.067C56.711,53.715 57.231,53.565 57.759,53.732Z" style="fill:rgb(238,135,105);"/>
            <path d="M57.683,53.759C58.149,53.902 58.449,54.268 58.352,54.576C58.256,54.884 57.8,55.017 57.335,54.873C56.869,54.73 56.569,54.364 56.665,54.056C56.762,53.748 57.218,53.616 57.683,53.759Z" style="fill:rgb(238,134,104);"/>
            <path d="M57.608,53.786C58.012,53.906 58.275,54.217 58.196,54.48C58.116,54.744 57.724,54.86 57.321,54.74C56.918,54.62 56.654,54.309 56.734,54.045C56.813,53.782 57.205,53.666 57.608,53.786Z" style="fill:rgb(237,132,103);"/>
            <path d="M57.533,53.813C57.874,53.909 58.101,54.165 58.039,54.384C57.976,54.603 57.648,54.702 57.307,54.606C56.966,54.509 56.739,54.254 56.802,54.035C56.864,53.816 57.192,53.717 57.533,53.813Z" style="fill:rgb(237,130,102);"/>
            <path d="M57.459,53.84C57.738,53.913 57.927,54.114 57.882,54.288C57.836,54.463 57.572,54.545 57.293,54.472C57.014,54.399 56.824,54.199 56.87,54.024C56.916,53.849 57.179,53.767 57.459,53.84Z" style="fill:rgb(237,128,101);"/>
            <path d="M85.557,49.274C84.641,48.018 82.483,47.296 81.406,47.11C79.366,46.757 80.59,45.65 81.594,45.728C83.486,45.876 85.383,47.184 86.199,48.598C86.843,49.715 86.651,50.772 85.557,49.274Z" style="fill:rgb(128,56,35);"/>
            <path d="M80.806,56.753C78.416,56.74 76.346,58.439 76.185,60.549C76.025,62.659 77.835,64.379 80.226,64.392C82.616,64.406 84.687,62.706 84.847,60.597C85.007,58.487 83.197,56.766 80.806,56.753Z" style="fill:rgb(248,187,136);"/>
            <path d="M80.851,56.804C78.513,56.79 76.489,58.451 76.331,60.514C76.174,62.577 77.944,64.259 80.282,64.273C82.62,64.286 84.644,62.626 84.802,60.563C84.959,58.5 83.188,56.818 80.851,56.804Z" style="fill:rgb(247,186,136);"/>
            <path d="M80.895,56.855C78.61,56.841 76.631,58.463 76.477,60.479C76.323,62.495 78.053,64.139 80.338,64.153C82.623,64.167 84.602,62.545 84.756,60.529C84.91,58.513 83.18,56.869 80.895,56.855Z" style="fill:rgb(247,185,136);"/>
            <path d="M80.94,56.906C78.708,56.892 76.774,58.476 76.623,60.444C76.473,62.413 78.162,64.02 80.395,64.034C82.627,64.048 84.56,62.465 84.711,60.496C84.861,58.527 83.172,56.921 80.94,56.906Z" style="fill:rgb(246,183,134);"/>
            <path d="M80.984,56.957C78.805,56.943 76.917,58.488 76.769,60.409C76.622,62.331 78.271,63.9 80.451,63.914C82.63,63.929 84.518,62.384 84.666,60.462C84.813,58.541 83.163,56.972 80.984,56.957Z" style="fill:rgb(246,182,134);"/>
            <path d="M81.029,57.008C78.902,56.993 77.06,58.5 76.915,60.374C76.771,62.249 78.38,63.78 80.507,63.795C82.633,63.81 84.476,62.303 84.62,60.429C84.764,58.554 83.155,57.024 81.029,57.008Z" style="fill:rgb(246,180,132);"/>
            <path d="M81.073,57.06C78.999,57.044 77.202,58.512 77.061,60.34C76.92,62.167 78.489,63.66 80.563,63.675C82.637,63.691 84.434,62.223 84.575,60.395C84.716,58.568 83.147,57.075 81.073,57.06Z" style="fill:rgb(247,180,133);"/>
            <path d="M81.118,57.111C79.097,57.095 77.345,58.524 77.207,60.304C77.07,62.085 78.598,63.54 80.619,63.556C82.64,63.572 84.392,62.142 84.53,60.362C84.667,58.582 83.139,57.126 81.118,57.111Z" style="fill:rgb(245,177,131);"/>
            <path d="M81.162,57.162C79.194,57.146 77.488,58.537 77.353,60.27C77.219,62.003 78.707,63.421 80.675,63.437C82.643,63.453 84.35,62.062 84.484,60.329C84.619,58.595 83.13,57.178 81.162,57.162Z" style="fill:rgb(245,177,130);"/>
            <path d="M81.207,57.213C79.291,57.196 77.631,58.549 77.499,60.235C77.368,61.921 78.816,63.3 80.732,63.317C82.647,63.334 84.308,61.981 84.439,60.295C84.57,58.609 83.122,57.229 81.207,57.213Z" style="fill:rgb(245,176,129);"/>
            <path d="M81.251,57.264C79.389,57.247 77.773,58.561 77.645,60.2C77.517,61.839 78.925,63.18 80.788,63.197C82.65,63.214 84.266,61.9 84.394,60.261C84.522,58.623 83.114,57.281 81.251,57.264Z" style="fill:rgb(245,174,129);"/>
            <path d="M81.295,57.315C79.486,57.298 77.916,58.573 77.791,60.165C77.667,61.757 79.035,63.061 80.844,63.078C82.654,63.095 84.224,61.82 84.348,60.228C84.473,58.636 83.105,57.332 81.295,57.315Z" style="fill:rgb(245,173,128);"/>
            <path d="M81.34,57.366C79.583,57.348 78.059,58.585 77.937,60.13C77.816,61.675 79.143,62.941 80.9,62.958C82.657,62.976 84.182,61.739 84.303,60.194C84.425,58.65 83.097,57.384 81.34,57.366Z" style="fill:rgb(245,171,127);"/>
            <path d="M81.385,57.417C79.681,57.399 78.201,58.598 78.083,60.096C77.965,61.593 79.252,62.821 80.956,62.839C82.66,62.857 84.139,61.659 84.258,60.161C84.376,58.663 83.089,57.435 81.385,57.417Z" style="fill:rgb(244,170,127);"/>
            <path d="M81.429,57.468C79.778,57.45 78.344,58.61 78.229,60.06C78.114,61.511 79.361,62.701 81.013,62.72C82.664,62.738 84.097,61.578 84.213,60.128C84.328,58.677 83.08,57.487 81.429,57.468Z" style="fill:rgb(244,168,126);"/>
            <path d="M81.474,57.519C79.875,57.5 78.487,58.622 78.375,60.025C78.263,61.429 79.47,62.581 81.069,62.6C82.667,62.619 84.056,61.497 84.167,60.094C84.279,58.69 83.072,57.538 81.474,57.519Z" style="fill:rgb(244,168,125);"/>
            <path d="M81.518,57.57C79.972,57.551 78.63,58.635 78.521,59.991C78.413,61.347 79.579,62.461 81.125,62.48C82.671,62.5 84.014,61.416 84.122,60.06C84.23,58.704 83.064,57.59 81.518,57.57Z" style="fill:rgb(243,166,124);"/>
            <path d="M81.562,57.621C80.07,57.602 78.773,58.646 78.667,59.955C78.562,61.265 79.688,62.341 81.181,62.361C82.674,62.38 83.971,61.336 84.076,60.027C84.182,58.718 83.055,57.641 81.562,57.621Z" style="fill:rgb(243,164,124);"/>
            <path d="M81.607,57.673C80.167,57.653 78.915,58.659 78.813,59.921C78.711,61.183 79.797,62.221 81.237,62.242C82.677,62.262 83.929,61.255 84.031,59.993C84.133,58.731 83.047,57.693 81.607,57.673Z" style="fill:rgb(244,163,122);"/>
            <path d="M81.651,57.724C80.264,57.704 79.058,58.671 78.959,59.886C78.86,61.101 79.906,62.102 81.294,62.122C82.681,62.142 83.887,61.175 83.986,59.96C84.085,58.745 83.039,57.744 81.651,57.724Z" style="fill:rgb(244,162,121);"/>
            <path d="M81.696,57.775C80.361,57.754 79.201,58.684 79.105,59.851C79.01,61.019 80.015,61.982 81.35,62.003C82.684,62.023 83.845,61.094 83.941,59.927C84.036,58.758 83.031,57.796 81.696,57.775Z" style="fill:rgb(243,160,120);"/>
            <path d="M81.74,57.825C80.459,57.805 79.343,58.695 79.251,59.816C79.159,60.937 80.124,61.861 81.406,61.882C82.688,61.904 83.803,61.013 83.895,59.892C83.987,58.772 83.022,57.846 81.74,57.825Z" style="fill:rgb(243,158,120);"/>
            <path d="M81.785,57.877C80.556,57.855 79.486,58.707 79.397,59.781C79.308,60.854 80.233,61.742 81.462,61.763C82.691,61.784 83.761,60.932 83.85,59.859C83.939,58.785 83.014,57.898 81.785,57.877Z" style="fill:rgb(243,157,119);"/>
            <path d="M81.829,57.928C80.653,57.906 79.629,58.72 79.543,59.746C79.457,60.772 80.342,61.622 81.519,61.644C82.695,61.665 83.719,60.852 83.805,59.825C83.891,58.799 83.006,57.949 81.829,57.928Z" style="fill:rgb(242,156,117);"/>
            <path d="M81.874,57.979C80.75,57.957 79.772,58.732 79.689,59.711C79.606,60.691 80.451,61.502 81.575,61.524C82.698,61.547 83.677,60.771 83.76,59.792C83.842,58.813 82.997,58.001 81.874,57.979Z" style="fill:rgb(242,154,116);"/>
            <path d="M81.918,58.03C80.848,58.008 79.915,58.744 79.835,59.677C79.755,60.609 80.56,61.382 81.631,61.405C82.701,61.428 83.635,60.69 83.714,59.759C83.793,58.826 82.989,58.053 81.918,58.03Z" style="fill:rgb(242,153,117);"/>
            <path d="M81.963,58.081C80.945,58.058 80.057,58.756 79.981,59.641C79.905,60.527 80.669,61.262 81.687,61.285C82.705,61.308 83.593,60.61 83.669,59.725C83.745,58.84 82.981,58.104 81.963,58.081Z" style="fill:rgb(241,151,114);"/>
            <path d="M82.007,58.132C81.042,58.109 80.2,58.769 80.127,59.607C80.054,60.444 80.778,61.142 81.743,61.166C82.708,61.189 83.551,60.529 83.624,59.691C83.696,58.853 82.972,58.155 82.007,58.132Z" style="fill:rgb(240,150,113);"/>
            <path d="M82.052,58.183C81.14,58.159 80.343,58.781 80.273,59.572C80.203,60.363 80.887,61.022 81.799,61.046C82.712,61.07 83.509,60.448 83.578,59.658C83.648,58.867 82.964,58.207 82.052,58.183Z" style="fill:rgb(240,149,113);"/>
            <path d="M82.096,58.234C81.237,58.21 80.486,58.793 80.419,59.537C80.353,60.281 80.996,60.903 81.856,60.927C82.715,60.951 83.466,60.368 83.533,59.624C83.599,58.881 82.956,58.259 82.096,58.234Z" style="fill:rgb(240,147,112);"/>
            <path d="M82.141,58.285C81.334,58.261 80.628,58.805 80.565,59.502C80.502,60.199 81.105,60.783 81.912,60.807C82.718,60.832 83.424,60.287 83.488,59.591C83.551,58.894 82.947,58.31 82.141,58.285Z" style="fill:rgb(240,146,111);"/>
            <path d="M82.185,58.336C81.431,58.312 80.771,58.818 80.711,59.467C80.651,60.116 81.214,60.663 81.968,60.688C82.722,60.713 83.382,60.207 83.442,59.557C83.502,58.908 82.939,58.362 82.185,58.336Z" style="fill:rgb(240,145,110);"/>
            <path d="M82.23,58.388C81.529,58.362 80.914,58.83 80.857,59.432C80.8,60.035 81.323,60.543 82.024,60.568C82.725,60.594 83.34,60.126 83.397,59.524C83.454,58.921 82.931,58.413 82.23,58.388Z" style="fill:rgb(240,143,110);"/>
            <path d="M82.274,58.439C81.626,58.413 81.056,58.842 81.003,59.397C80.949,59.952 81.432,60.423 82.081,60.448C82.729,60.474 83.298,60.045 83.352,59.49C83.405,58.935 82.923,58.464 82.274,58.439Z" style="fill:rgb(239,142,109);"/>
            <path d="M82.319,58.49C81.723,58.464 81.199,58.854 81.149,59.362C81.098,59.87 81.541,60.303 82.137,60.329C82.732,60.355 83.256,59.965 83.306,59.457C83.356,58.949 82.914,58.516 82.319,58.49Z" style="fill:rgb(238,140,108);"/>
            <path d="M82.363,58.541C81.82,58.515 81.342,58.867 81.295,59.328C81.248,59.789 81.65,60.184 82.193,60.21C82.735,60.236 83.214,59.884 83.261,59.423C83.308,58.962 82.906,58.567 82.363,58.541Z" style="fill:rgb(239,138,106);"/>
            <path d="M82.407,58.592C81.918,58.565 81.484,58.879 81.441,59.292C81.397,59.707 81.759,60.063 82.249,60.09C82.739,60.117 83.172,59.804 83.216,59.39C83.26,58.976 82.898,58.619 82.407,58.592Z" style="fill:rgb(238,138,106);"/>
            <path d="M82.452,58.643C82.015,58.616 81.627,58.891 81.587,59.258C81.546,59.625 81.868,59.944 82.305,59.971C82.742,59.998 83.13,59.723 83.171,59.356C83.211,58.989 82.889,58.67 82.452,58.643Z" style="fill:rgb(238,135,105);"/>
            <path d="M82.496,58.694C82.112,58.667 81.77,58.903 81.733,59.223C81.696,59.542 81.977,59.824 82.362,59.851C82.746,59.879 83.088,59.642 83.125,59.323C83.162,59.003 82.881,58.722 82.496,58.694Z" style="fill:rgb(238,134,104);"/>
            <path d="M82.541,58.745C82.21,58.717 81.913,58.916 81.879,59.188C81.845,59.461 82.086,59.704 82.418,59.732C82.749,59.76 83.046,59.561 83.08,59.289C83.114,59.017 82.873,58.773 82.541,58.745Z" style="fill:rgb(237,132,103);"/>
            <path d="M82.585,58.796C82.307,58.768 82.056,58.928 82.025,59.153C81.994,59.379 82.195,59.584 82.474,59.612C82.752,59.641 83.004,59.481 83.034,59.256C83.065,59.03 82.864,58.825 82.585,58.796Z" style="fill:rgb(237,130,102);"/>
            <path d="M82.63,58.847C82.404,58.819 82.199,58.94 82.171,59.118C82.143,59.296 82.304,59.464 82.53,59.493C82.756,59.521 82.962,59.4 82.989,59.222C83.017,59.044 82.856,58.876 82.63,58.847Z" style="fill:rgb(237,128,101);"/>
            <path d="M53.395,37.656C55.704,34.309 59.355,31.774 64.045,30.725C64.316,31.078 64.632,31.376 65.1,31.485C67.21,31.98 78.958,34.222 83.186,37.204C87.415,40.186 87.364,55.2 87.122,49.527C86.85,43.149 74.605,41.831 69.77,39.971C66.614,38.757 64.198,36.902 64.198,36.902C61.989,41.39 61.403,42.051 56.874,44.473C54.394,45.799 53.334,46.877 52.586,49.806C51.356,47.562 51.645,42.293 53.395,37.656Z" style="fill:rgb(242,171,113);"/>
            <path d="M63.585,34.236C63.585,34.236 65.94,37.751 71.346,39.321C76.751,40.892 83.08,42.961 85.216,45.077C87.352,47.193 87.298,51.79 87.298,51.79C95.18,40.218 80.994,23.557 61.152,29.087C52.369,31.535 45.037,41.19 48.024,51.546C48.178,49.507 50.993,48.324 52.587,49.856C52.949,46.645 53.776,45.416 56.307,43.835C58.717,42.329 62.439,39.875 63.585,34.236Z" style="fill:rgb(149,71,44);"/>
            <path d="M76.274,40.841C79.789,42.008 83.061,43.324 84.755,44.67C86.526,43.031 87.675,41.239 88.404,39.474C87.659,37.72 86.557,36.053 85.147,34.562C83.274,37.584 80.08,39.613 76.274,40.841ZM49.198,39.079C48.421,40.639 47.861,42.315 47.571,44.069C48.796,45.673 50.479,47.283 52.779,48.567C53.227,46.278 54.146,45.185 56.307,43.835C57.121,43.327 58.084,42.71 59.047,41.9C55.254,41.355 51.781,40.364 49.198,39.079Z" style="fill:rgb(158,95,65);"/>
            <path d="M59.847,44.7C61.268,43.794 63.712,43.761 64.862,43.908C67.041,44.187 66.264,42.78 65.23,42.554C63.281,42.127 60.861,42.789 59.478,43.873C58.386,44.73 58.153,45.781 59.847,44.7Z" style="fill:rgb(128,56,35);"/>
            <path d="M84.375,55.467C83.191,53.271 80.652,52.773 78.732,54.122C78.315,54.414 77.735,54.37 78.347,53.518C79.361,52.109 81.252,52.085 82.764,52.785C84.009,53.361 84.86,54.522 84.955,56.058C85.008,56.912 84.683,56.039 84.375,55.467Z" style="fill:rgb(73,43,41);"/>
            <path d="M74.835,63.114C74.347,63.741 72.804,64.73 70.226,64.209C67.981,63.756 66.643,62.301 66.215,61.314C65.955,60.713 66.105,60.209 66.415,60.656C69.113,64.535 73.501,63.447 74.5,62.816C74.878,62.577 75.131,62.732 74.835,63.114Z" style="fill:rgb(175,34,40);"/>
            <path d="M119.821,127.524C119.821,127.524 119.394,109.009 119.675,101.127C119.956,93.244 113.717,93.1 112.3,96.264C110.884,99.428 112.361,107.923 112.878,113.39C113.396,118.857 113.985,127.524 113.985,127.524C113.411,130.323 117.409,131.015 118.915,130.245C120.422,129.475 119.821,127.524 119.821,127.524Z" style="fill:rgb(248,187,136);"/>
            <path d="M119.607,114.134C119.563,109.349 119.56,104.349 119.675,101.127C119.697,100.517 119.679,99.955 119.628,99.436C118.529,97.706 117.314,95.984 115.995,94.385C114.474,94.123 112.922,94.874 112.3,96.264C110.884,99.428 112.361,107.923 112.878,113.39C112.912,113.747 112.947,114.119 112.981,114.501C115.538,114.47 117.754,114.325 119.607,114.134Z" style="fill:rgb(242,171,113);"/>
            <path d="M119.818,127.367L120.1,122.657C118.453,122.688 115.733,122.692 113.491,122.687C113.74,125.428 113.913,127.342 113.913,127.342C113.338,130.142 117.575,131.33 119.082,130.56C120.589,129.79 120.13,127.586 119.818,127.367Z" style="fill:rgb(243,250,254);"/>
            <path d="M119.818,127.367C120.385,127.484 123.269,130.836 123.004,133.112L111.675,133.112C111.675,133.112 111.464,130.51 113.913,127.342C118.415,128.645 120.038,127.948 119.818,127.367Z" style="fill:rgb(64,96,142);"/>
            <path d="M122.801,132.925L111.99,132.925C111.658,132.925 111.387,133.196 111.387,133.528C111.387,133.859 111.659,134.13 111.99,134.13L122.801,134.13C123.132,134.13 123.404,133.859 123.404,133.528C123.404,133.196 123.133,132.925 122.801,132.925Z" style="fill:rgb(31,57,103);"/>
            <path d="M120.787,129.275C120.958,129.325 121.152,129.257 121.218,129.125C121.284,128.992 121.199,128.843 121.028,128.793C120.505,128.64 119.702,128.532 118.936,128.572C118.312,128.604 117.7,128.734 117.252,129.013C117.107,129.102 117.083,129.265 117.198,129.376C117.313,129.486 117.524,129.503 117.668,129.413C117.997,129.209 118.474,129.112 118.973,129.087C119.644,129.052 120.339,129.144 120.787,129.275Z" style="fill:rgb(225,243,252);"/>
            <path d="M121.001,130.215C121.172,130.265 121.365,130.198 121.432,130.065C121.498,129.932 121.413,129.783 121.242,129.733C120.718,129.581 119.915,129.473 119.15,129.513C118.525,129.545 117.914,129.675 117.466,129.953C117.321,130.043 117.297,130.205 117.412,130.316C117.527,130.427 117.737,130.443 117.882,130.354C118.21,130.15 118.688,130.053 119.186,130.027C119.858,129.992 120.552,130.084 121.001,130.215Z" style="fill:rgb(225,243,252);"/>
            <path d="M99.417,126.925C99.417,126.925 99.982,109.009 99.7,101.127C99.419,93.244 105.658,93.1 107.075,96.264C108.492,99.428 107.014,107.923 106.497,113.39C105.98,118.857 105.464,127.367 105.464,127.367L103.153,131.541L99.417,126.925Z" style="fill:rgb(248,187,136);"/>
            <path d="M99.719,113.851C99.789,109.204 99.815,104.334 99.7,101.127C99.419,93.244 105.658,93.1 107.075,96.264C108.492,99.428 107.014,107.923 106.497,113.39C106.466,113.718 106.434,114.057 106.404,114.404C104.332,114.305 102.102,114.129 99.719,113.851Z" style="fill:rgb(242,171,113);"/>
            <path d="M99.416,126.9C99.416,126.9 99.246,125.122 99.287,122.664C101.376,122.678 103.903,122.682 105.928,122.671C105.682,125.369 105.499,127.346 105.499,127.346L103.153,131.541L99.416,126.9Z" style="fill:rgb(243,250,254);"/>
            <path d="M105.463,127.342C105.463,127.342 106.475,128.062 106.711,129.882C106.947,131.701 106.479,133.14 106.479,133.14L94.242,133.606L92.843,132.976C92.458,129.784 97.778,127.856 99.416,126.9C99.849,127.643 104.175,129.893 105.463,127.342Z" style="fill:rgb(64,96,142);"/>
            <path d="M94.676,129.606C94.822,129.49 94.973,129.377 95.128,129.267C95.572,129.488 95.964,129.765 96.216,130.006C96.322,130.107 96.315,130.262 96.201,130.351C96.086,130.439 95.907,130.428 95.802,130.328C95.553,130.089 95.139,129.808 94.676,129.606Z" style="fill:rgb(225,243,252);"/>
            <path d="M95.733,128.864C95.896,128.762 96.06,128.663 96.224,128.567C96.519,128.744 96.773,128.936 96.955,129.11C97.061,129.212 97.054,129.366 96.94,129.455C96.826,129.543 96.646,129.533 96.541,129.432C96.351,129.25 96.064,129.042 95.733,128.864Z" style="fill:rgb(225,243,252);"/>
            <path d="M106.479,132.925L92.983,132.925C92.651,132.925 92.38,133.196 92.38,133.528C92.38,133.859 92.652,134.13 92.983,134.13L106.479,134.13C106.81,134.13 107.082,133.859 107.082,133.528C107.082,133.196 106.811,132.925 106.479,132.925Z" style="fill:rgb(31,57,103);"/>
            <path d="M99.308,70.355C99.308,70.355 95.667,73.409 93.448,78.867C91.23,84.324 90.293,93.049 90.293,93.049C90.293,93.049 86.956,96.648 86.183,98.4C85.646,99.619 86.006,100.266 86.733,99.404C87.041,99.039 87.614,98.015 88.063,97.618C87.754,98.174 86.368,100.829 87.103,101.206C87.837,101.582 87.878,100.32 89.445,98.304C88.648,99.798 87.794,101.727 88.464,102.175C89.133,102.623 90.051,99.624 90.585,98.987C90.269,99.904 89.746,102.246 90.634,102.24C91.522,102.233 91.827,99.867 92.351,99.157L93.956,97.203C94.138,97.38 94.615,98.988 94.882,99.176C95.141,99.36 95.501,99.288 95.718,98.387C96.06,96.902 94.899,94.498 94.899,94.498C95.287,85.892 97.692,81.62 103.31,76.31C104.259,75.413 105.468,72.67 103.949,70.849C102.429,69.029 100.492,69.197 99.308,70.355Z" style="fill:rgb(248,187,136);"/>
            <path d="M99.308,70.355C99.308,70.355 95.667,73.409 93.448,78.867C96.456,77.449 98.8,79.437 99.591,80.294C100.632,78.974 101.865,77.676 103.31,76.31C104.259,75.413 105.468,72.67 103.949,70.849C102.429,69.029 100.492,69.197 99.308,70.355Z" style="fill:rgb(242,171,113);"/>
            <path d="M95.869,73.237C97.714,75.367 100.061,77.048 102.774,77.658L101.496,79.875C99.995,79.605 95.314,77.067 94.547,75.284L95.869,73.237Z" style="fill:rgb(78,193,183);"/>
            <path d="M95.869,73.237C96.816,75.036 100.399,77.197 103.039,77.891C106.907,74.818 109.617,68.218 104.924,67.314C104.476,67.228 104.576,66.633 104.074,66.791C101.355,67.647 97.466,70.23 95.869,73.237Z" style="fill:rgb(0,151,136);"/>
            <path d="M121.34,70.495C121.34,70.495 125.117,73.38 127.583,78.73C130.048,84.081 131.382,92.754 131.382,92.754C131.382,92.754 134.881,96.197 135.733,97.912C136.325,99.105 135.995,99.767 135.229,98.94C134.905,98.589 134.285,97.593 133.819,97.216C134.153,97.758 135.659,100.347 134.942,100.756C134.225,101.166 134.127,99.907 132.469,97.964C133.334,99.421 134.275,101.309 133.627,101.787C132.979,102.265 131.924,99.311 131.362,98.699C131.72,99.601 132.349,101.916 131.462,101.95C130.574,101.984 130.162,99.634 129.606,98.949L127.913,97.071C127.739,97.256 127.336,98.884 127.079,99.085C126.828,99.28 126.465,99.224 126.207,98.334C125.797,96.867 126.848,94.412 126.848,94.412C126.067,85.833 123.47,81.675 117.614,76.627C116.625,75.774 115.292,73.089 116.727,71.201C118.162,69.313 120.105,69.393 121.34,70.495Z" style="fill:rgb(248,187,136);"/>
            <path d="M121.34,70.495C121.34,70.495 125.117,73.38 127.583,78.73C124.514,77.451 122.263,79.544 121.511,80.437C120.412,79.166 119.121,77.925 117.614,76.627C116.626,75.774 115.292,73.089 116.727,71.201C118.162,69.313 120.105,69.393 121.34,70.495Z" style="fill:rgb(242,171,113);"/>
            <path d="M124.908,73.217C123.161,75.429 120.894,77.216 118.211,77.949L119.59,80.106C121.076,79.767 125.637,77.017 126.321,75.201L124.908,73.217Z" style="fill:rgb(78,193,183);"/>
            <path d="M124.908,73.217C124.043,75.058 120.563,77.38 117.958,78.194C113.953,75.301 110.944,68.831 115.591,67.714C116.035,67.608 115.908,67.018 116.417,67.153C119.172,67.884 123.175,70.286 124.908,73.217Z" style="fill:rgb(0,151,136);"/>
            <path d="M113.836,60.562L108.532,61.488L108.085,66.757L110.968,67.349L113.986,67.27L113.836,60.562Z" style="fill:rgb(226,151,85);"/>
            <path d="M120.715,93.625C121.101,100.365 120.798,110.346 120.894,112.63L111.217,112.634L110.895,100.687C110.28,100.683 109.718,100.64 109.103,100.636L108.453,112.642L98.196,112.265C98.127,106.459 98.604,99.836 98.808,93.621C98.808,93.621 117.341,87.484 120.715,93.625Z" style="fill:rgb(64,96,142);"/>
            <path d="M120.715,93.625C120.715,93.625 120.145,75.905 119.735,72.563C119.372,69.605 117.859,67.873 115.512,67.024C113.426,69.299 107.8,69.363 106,66.402C102.964,66.816 100.902,68.247 100.596,72.342C100.22,77.378 98.828,93.607 98.828,93.607C98.206,93.763 111.919,96.264 120.715,93.625Z" style="fill:rgb(0,151,136);"/>
            <path d="M116.095,67.499C114.917,66.641 112.134,66.085 110.178,66.014C108.547,65.955 106.449,66.102 105.538,66.762C106.411,67.896 108.744,68.804 110.817,68.804C112.888,68.804 115.015,67.88 116.095,67.499Z" style="fill:rgb(226,151,85);"/>
            <path d="M115.303,66.778C114.007,67.782 112.332,68.46 110.804,68.411C108.635,68.342 106.772,67.278 106.167,66.219L104.162,66.79C106.291,71.04 114.641,71.343 117.468,67.495C117.169,67.383 116.4,67.095 115.303,66.778Z" style="fill:rgb(78,193,183);"/>
            <path d="M126.981,49.578C131.14,48.378 130.241,42.34 126.592,42.399C126.51,32.268 117.826,24.135 105.219,25.83C96.496,27.004 88.335,33.698 88.9,44.304C89.279,51.424 91.195,58.09 94.907,61.789C103.952,70.803 126.143,62.534 126.981,49.578Z" style="fill:rgb(248,187,136);"/>
            <path d="M126.981,49.578C128.122,49.456 128.756,48.565 129.206,47.912C128.115,48.608 126.925,48.952 125.421,48.454C125.51,60.514 106.901,68.484 97.714,63.848C107.858,69.24 126.22,61.341 126.981,49.578Z" style="fill:rgb(242,171,113);"/>
            <path d="M102.413,53.255C103.328,55.821 107.37,54.478 107.018,52.524C106.594,52.825 106.108,53.242 105.208,53.47C104.435,53.667 103.285,53.744 102.413,53.255Z" style="fill:rgb(232,160,99);"/>
            <path d="M127.096,46.207C127.096,46.207 127.305,45.197 126.429,45.265C125.973,45.301 125.842,45.751 125.827,46.169C125.813,46.554 125.898,46.913 125.916,46.89C125.916,46.89 125.979,46.691 126.089,46.472C126.294,46.067 126.663,45.595 127.096,46.207Z" style="fill:rgb(242,171,113);"/>
            <path d="M115.638,40.098C114.082,39.335 111.579,39.583 110.42,39.866C108.226,40.401 108.859,38.874 109.888,38.524C111.832,37.863 114.381,38.261 115.92,39.21C117.136,39.96 117.494,41.008 115.638,40.098Z" style="fill:rgb(73,43,41);"/>
            <path d="M117.007,47.749C114.237,49.134 112.784,51.841 113.767,53.794C114.749,55.748 117.794,56.206 120.564,54.821C123.334,53.436 124.787,50.728 123.804,48.775C122.822,46.822 119.777,46.363 117.007,47.749Z" style="fill:rgb(248,187,136);"/>
            <path d="M117.087,47.768C114.377,49.121 112.956,51.768 113.916,53.678C114.876,55.588 117.853,56.037 120.563,54.683C123.272,53.329 124.693,50.682 123.733,48.772C122.773,46.862 119.796,46.414 117.087,47.768Z" style="fill:rgb(247,186,136);"/>
            <path d="M117.166,47.787C114.518,49.109 113.128,51.696 114.066,53.562C115.004,55.429 117.913,55.867 120.562,54.544C123.21,53.221 124.6,50.635 123.662,48.769C122.724,46.902 119.815,46.464 117.166,47.787Z" style="fill:rgb(247,185,136);"/>
            <path d="M117.246,47.806C114.658,49.097 113.3,51.623 114.215,53.446C115.131,55.269 117.973,55.698 120.56,54.406C123.148,53.115 124.507,50.589 123.591,48.766C122.676,46.943 119.834,46.514 117.246,47.806Z" style="fill:rgb(246,183,134);"/>
            <path d="M117.325,47.825C114.799,49.085 113.471,51.55 114.364,53.33C115.258,55.11 118.032,55.529 120.559,54.268C123.086,53.008 124.414,50.543 123.52,48.763C122.627,46.983 119.853,46.565 117.325,47.825Z" style="fill:rgb(246,182,134);"/>
            <path d="M117.405,47.844C114.939,49.073 113.643,51.478 114.514,53.214C115.385,54.95 118.092,55.359 120.558,54.13C123.024,52.901 124.32,50.496 123.449,48.76C122.579,47.024 119.872,46.614 117.405,47.844Z" style="fill:rgb(246,180,132);"/>
            <path d="M117.485,47.863C115.08,49.061 113.815,51.405 114.663,53.098C115.512,54.791 118.151,55.19 120.557,53.992C122.962,52.794 124.227,50.449 123.379,48.757C122.53,47.064 119.89,46.665 117.485,47.863Z" style="fill:rgb(247,180,133);"/>
            <path d="M117.565,47.882C115.22,49.049 113.987,51.332 114.813,52.982C115.639,54.631 118.211,55.021 120.556,53.854C122.9,52.687 124.134,50.403 123.308,48.754C122.481,47.104 119.909,46.715 117.565,47.882Z" style="fill:rgb(245,177,131);"/>
            <path d="M117.644,47.901C115.361,49.036 114.158,51.26 114.962,52.866C115.766,54.472 118.271,54.851 120.554,53.716C122.838,52.58 124.04,50.357 123.237,48.75C122.433,47.145 119.928,46.765 117.644,47.901Z" style="fill:rgb(245,177,130);"/>
            <path d="M117.724,47.92C115.501,49.024 114.33,51.187 115.112,52.75C115.893,54.313 118.33,54.682 120.553,53.577C122.776,52.473 123.947,50.31 123.166,48.748C122.384,47.185 119.947,46.815 117.724,47.92Z" style="fill:rgb(245,176,129);"/>
            <path d="M117.804,47.939C115.642,49.012 114.502,51.114 115.261,52.634C116.02,54.153 118.39,54.513 120.552,53.439C122.714,52.366 123.854,50.264 123.095,48.744C122.336,47.225 119.966,46.865 117.804,47.939Z" style="fill:rgb(245,174,129);"/>
            <path d="M117.883,47.958C115.782,49 114.674,51.042 115.41,52.518C116.147,53.994 118.45,54.343 120.551,53.301C122.652,52.259 123.761,50.217 123.024,48.742C122.287,47.266 119.985,46.916 117.883,47.958Z" style="fill:rgb(245,173,128);"/>
            <path d="M117.963,47.977C115.923,48.988 114.845,50.969 115.56,52.402C116.274,53.834 118.509,54.174 120.55,53.163C122.59,52.152 123.667,50.171 122.953,48.738C122.238,47.306 120.004,46.966 117.963,47.977Z" style="fill:rgb(245,171,127);"/>
            <path d="M118.043,47.996C116.063,48.976 115.017,50.897 115.709,52.285C116.401,53.674 118.569,54.005 120.548,53.025C122.528,52.045 123.574,50.124 122.882,48.735C122.19,47.346 120.022,47.016 118.043,47.996Z" style="fill:rgb(244,170,127);"/>
            <path d="M118.122,48.015C116.204,48.964 115.189,50.824 115.859,52.17C116.528,53.515 118.629,53.835 120.547,52.886C122.466,51.938 123.481,50.078 122.811,48.732C122.141,47.387 120.041,47.066 118.122,48.015Z" style="fill:rgb(244,168,126);"/>
            <path d="M118.202,48.034C116.344,48.951 115.361,50.751 116.008,52.053C116.656,53.356 118.688,53.666 120.546,52.748C122.404,51.831 123.388,50.031 122.74,48.729C122.093,47.427 120.06,47.117 118.202,48.034Z" style="fill:rgb(244,168,125);"/>
            <path d="M118.282,48.053C116.485,48.939 115.532,50.679 116.158,51.937C116.783,53.196 118.748,53.496 120.545,52.61C122.342,51.724 123.294,49.985 122.669,48.726C122.044,47.467 120.079,47.167 118.282,48.053Z" style="fill:rgb(243,166,124);"/>
            <path d="M118.362,48.072C116.625,48.927 115.704,50.606 116.307,51.821C116.91,53.037 118.807,53.327 120.544,52.472C122.28,51.617 123.201,49.938 122.598,48.723C121.996,47.508 120.098,47.217 118.362,48.072Z" style="fill:rgb(243,164,124);"/>
            <path d="M118.441,48.091C116.766,48.915 115.876,50.534 116.456,51.706C117.037,52.877 118.867,53.158 120.543,52.334C122.218,51.51 123.108,49.892 122.527,48.72C121.947,47.548 120.117,47.268 118.441,48.091Z" style="fill:rgb(244,163,122);"/>
            <path d="M118.521,48.11C116.906,48.903 116.048,50.461 116.606,51.59C117.164,52.718 118.926,52.989 120.541,52.196C122.156,51.403 123.015,49.845 122.456,48.717C121.898,47.588 120.136,47.318 118.521,48.11Z" style="fill:rgb(244,162,121);"/>
            <path d="M118.6,48.129C117.047,48.891 116.219,50.388 116.755,51.473C117.291,52.558 118.986,52.82 120.54,52.058C122.094,51.296 122.921,49.799 122.386,48.714C121.85,47.629 120.154,47.368 118.6,48.129Z" style="fill:rgb(243,160,120);"/>
            <path d="M118.68,48.148C117.187,48.878 116.391,50.315 116.905,51.357C117.418,52.398 119.046,52.649 120.539,51.919C122.032,51.189 122.828,49.752 122.315,48.71C121.801,47.669 120.173,47.418 118.68,48.148Z" style="fill:rgb(243,158,120);"/>
            <path d="M118.76,48.167C117.327,48.866 116.563,50.243 117.054,51.241C117.545,52.239 119.106,52.48 120.538,51.781C121.97,51.082 122.735,49.705 122.244,48.707C121.753,47.709 120.192,47.468 118.76,48.167Z" style="fill:rgb(243,157,119);"/>
            <path d="M118.839,48.186C117.468,48.854 116.735,50.17 117.203,51.125C117.672,52.079 119.165,52.311 120.537,51.643C121.908,50.975 122.642,49.659 122.173,48.704C121.704,47.749 120.211,47.518 118.839,48.186Z" style="fill:rgb(242,156,117);"/>
            <path d="M118.919,48.205C117.609,48.842 116.907,50.097 117.353,51.009C117.799,51.92 119.225,52.142 120.535,51.505C121.846,50.868 122.548,49.613 122.102,48.701C121.655,47.79 120.23,47.569 118.919,48.205Z" style="fill:rgb(242,154,116);"/>
            <path d="M118.999,48.224C117.749,48.83 117.078,50.025 117.502,50.893C117.926,51.761 119.284,51.973 120.534,51.367C121.784,50.761 122.455,49.566 122.031,48.698C121.607,47.831 120.249,47.619 118.999,48.224Z" style="fill:rgb(242,153,117);"/>
            <path d="M119.079,48.243C117.89,48.818 117.25,49.952 117.652,50.777C118.053,51.601 119.344,51.803 120.533,51.228C121.722,50.654 122.362,49.52 121.96,48.695C121.558,47.871 120.268,47.669 119.079,48.243Z" style="fill:rgb(241,151,114);"/>
            <path d="M119.158,48.262C118.03,48.806 117.422,49.879 117.801,50.661C118.181,51.442 119.404,51.634 120.532,51.09C121.66,50.547 122.269,49.473 121.889,48.692C121.51,47.911 120.287,47.719 119.158,48.262Z" style="fill:rgb(240,150,113);"/>
            <path d="M119.238,48.281C118.17,48.793 117.593,49.807 117.951,50.545C118.308,51.282 119.463,51.464 120.531,50.952C121.598,50.44 122.175,49.427 121.818,48.689C121.461,47.952 120.306,47.769 119.238,48.281Z" style="fill:rgb(240,149,113);"/>
            <path d="M119.318,48.3C118.311,48.781 117.765,49.734 118.1,50.428C118.435,51.122 119.523,51.295 120.529,50.814C121.536,50.333 122.082,49.38 121.747,48.686C121.412,47.992 120.324,47.819 119.318,48.3Z" style="fill:rgb(240,147,112);"/>
            <path d="M119.397,48.319C118.451,48.769 117.937,49.661 118.249,50.312C118.562,50.963 119.582,51.126 120.528,50.676C121.474,50.226 121.989,49.333 121.676,48.683C121.364,48.032 120.343,47.869 119.397,48.319Z" style="fill:rgb(240,146,111);"/>
            <path d="M119.477,48.339C118.592,48.757 118.109,49.589 118.399,50.196C118.689,50.804 119.642,50.956 120.527,50.538C121.412,50.119 121.895,49.287 121.606,48.68C121.315,48.073 120.362,47.92 119.477,48.339Z" style="fill:rgb(240,145,110);"/>
            <path d="M119.557,48.358C118.733,48.745 118.28,49.516 118.548,50.08C118.816,50.644 119.702,50.787 120.526,50.4C121.35,50.012 121.802,49.241 121.535,48.677C121.267,48.113 120.381,47.97 119.557,48.358Z" style="fill:rgb(240,143,110);"/>
            <path d="M119.636,48.377C118.873,48.733 118.452,49.444 118.697,49.964C118.943,50.485 119.761,50.618 120.525,50.261C121.288,49.905 121.709,49.194 121.464,48.674C121.218,48.153 120.4,48.02 119.636,48.377Z" style="fill:rgb(239,142,109);"/>
            <path d="M119.716,48.396C119.014,48.721 118.624,49.371 118.847,49.848C119.07,50.325 119.821,50.448 120.524,50.123C121.226,49.798 121.616,49.148 121.393,48.671C121.17,48.194 120.419,48.071 119.716,48.396Z" style="fill:rgb(238,140,108);"/>
            <path d="M119.796,48.414C119.154,48.708 118.796,49.298 118.996,49.732C119.197,50.166 119.881,50.279 120.522,49.985C121.164,49.691 121.522,49.101 121.322,48.668C121.121,48.234 120.438,48.121 119.796,48.414Z" style="fill:rgb(239,138,106);"/>
            <path d="M119.876,48.433C119.294,48.696 118.967,49.226 119.146,49.616C119.324,50.006 119.94,50.11 120.521,49.847C121.102,49.584 121.429,49.055 121.251,48.665C121.072,48.274 120.456,48.171 119.876,48.433Z" style="fill:rgb(238,138,106);"/>
            <path d="M119.955,48.452C119.435,48.684 119.139,49.153 119.295,49.5C119.451,49.847 120,49.94 120.52,49.709C121.04,49.477 121.336,49.008 121.18,48.661C121.024,48.314 120.475,48.221 119.955,48.452Z" style="fill:rgb(238,135,105);"/>
            <path d="M120.035,48.472C119.575,48.672 119.311,49.081 119.445,49.384C119.578,49.688 120.059,49.771 120.519,49.57C120.978,49.37 121.243,48.962 121.109,48.658C120.975,48.355 120.494,48.272 120.035,48.472Z" style="fill:rgb(238,134,104);"/>
            <path d="M120.114,48.491C119.716,48.66 119.483,49.008 119.594,49.268C119.705,49.528 120.119,49.602 120.518,49.432C120.916,49.263 121.149,48.915 121.038,48.655C120.927,48.395 120.513,48.322 120.114,48.491Z" style="fill:rgb(237,132,103);"/>
            <path d="M120.194,48.51C119.856,48.648 119.654,48.935 119.743,49.152C119.833,49.369 120.179,49.432 120.516,49.294C120.854,49.156 121.056,48.869 120.967,48.652C120.878,48.436 120.532,48.372 120.194,48.51Z" style="fill:rgb(237,130,102);"/>
            <path d="M120.274,48.529C119.997,48.636 119.826,48.863 119.893,49.036C119.96,49.209 120.238,49.263 120.515,49.156C120.792,49.049 120.963,48.822 120.896,48.649C120.829,48.476 120.551,48.422 120.274,48.529Z" style="fill:rgb(237,128,101);"/>
            <path d="M91.028,47.096C91.82,45.707 93.942,44.72 95.022,44.406C97.066,43.811 95.687,42.82 94.67,43.016C92.753,43.385 90.965,44.94 90.293,46.479C89.763,47.694 90.082,48.752 91.028,47.096Z" style="fill:rgb(73,43,41);"/>
            <path d="M96.744,54.194C99.186,53.905 101.498,55.403 101.904,57.542C102.311,59.68 100.659,61.647 98.217,61.935C95.775,62.224 93.464,60.726 93.057,58.587C92.65,56.449 94.302,54.482 96.744,54.194Z" style="fill:rgb(248,187,136);"/>
            <path d="M96.705,54.251C99.092,53.968 101.353,55.433 101.751,57.523C102.149,59.613 100.534,61.537 98.146,61.82C95.758,62.103 93.497,60.639 93.099,58.548C92.701,56.458 94.317,54.534 96.705,54.251Z" style="fill:rgb(247,186,136);"/>
            <path d="M96.665,54.308C98.999,54.031 101.209,55.461 101.598,57.504C101.987,59.547 100.409,61.427 98.075,61.704C95.741,61.981 93.531,60.551 93.142,58.509C92.752,56.466 94.331,54.586 96.665,54.308Z" style="fill:rgb(247,185,136);"/>
            <path d="M96.625,54.366C98.905,54.094 101.064,55.49 101.445,57.485C101.825,59.48 100.283,61.317 98.003,61.589C95.723,61.86 93.565,60.464 93.184,58.469C92.804,56.474 94.346,54.637 96.625,54.366Z" style="fill:rgb(246,183,134);"/>
            <path d="M96.586,54.423C98.812,54.157 100.92,55.519 101.291,57.466C101.663,59.413 100.158,61.207 97.932,61.473C95.706,61.738 93.598,60.377 93.227,58.43C92.855,56.482 94.36,54.689 96.586,54.423Z" style="fill:rgb(246,182,134);"/>
            <path d="M96.546,54.48C98.718,54.22 100.775,55.548 101.138,57.447C101.502,59.347 100.033,61.097 97.861,61.357C95.689,61.617 93.632,60.289 93.269,58.39C92.906,56.491 94.374,54.741 96.546,54.48Z" style="fill:rgb(246,180,132);"/>
            <path d="M96.507,54.538C98.625,54.283 100.631,55.577 100.985,57.429C101.339,59.28 99.908,60.987 97.79,61.241C95.672,61.496 93.666,60.202 93.311,58.35C92.957,56.499 94.389,54.792 96.507,54.538Z" style="fill:rgb(247,180,133);"/>
            <path d="M96.467,54.595C98.531,54.346 100.486,55.606 100.832,57.41C101.177,59.213 99.782,60.877 97.719,61.126C95.655,61.374 93.7,60.115 93.354,58.311C93.008,56.507 94.403,54.844 96.467,54.595Z" style="fill:rgb(245,177,131);"/>
            <path d="M96.428,54.652C98.437,54.41 100.342,55.635 100.679,57.391C101.015,59.147 99.657,60.767 97.648,61.01C95.638,61.253 93.734,60.028 93.397,58.272C93.059,56.516 94.418,54.896 96.428,54.652Z" style="fill:rgb(245,177,130);"/>
            <path d="M96.388,54.71C98.344,54.472 100.197,55.664 100.525,57.372C100.854,59.08 99.532,60.657 97.576,60.894C95.621,61.132 93.767,59.94 93.439,58.232C93.111,56.524 94.432,54.947 96.388,54.71Z" style="fill:rgb(245,176,129);"/>
            <path d="M96.349,54.767C98.25,54.535 100.053,55.693 100.372,57.353C100.692,59.014 99.407,60.547 97.505,60.779C95.603,61.01 93.801,59.853 93.481,58.193C93.162,56.532 94.446,54.999 96.349,54.767Z" style="fill:rgb(245,174,129);"/>
            <path d="M96.309,54.824C98.157,54.598 99.908,55.722 100.219,57.334C100.53,58.947 99.282,60.437 97.434,60.663C95.586,60.889 93.834,59.766 93.524,58.153C93.213,56.541 94.461,55.05 96.309,54.824Z" style="fill:rgb(245,173,128);"/>
            <path d="M96.269,54.882C98.063,54.661 99.764,55.751 100.066,57.315C100.368,58.88 99.156,60.327 97.362,60.547C95.569,60.768 93.868,59.679 93.566,58.114C93.264,56.549 94.476,55.102 96.269,54.882Z" style="fill:rgb(245,171,127);"/>
            <path d="M96.23,54.939C97.97,54.725 99.619,55.78 99.913,57.297C100.206,58.814 99.031,60.217 97.291,60.432C95.552,60.647 93.902,59.592 93.609,58.074C93.315,56.558 94.49,55.154 96.23,54.939Z" style="fill:rgb(244,170,127);"/>
            <path d="M96.19,54.997C97.876,54.788 99.475,55.809 99.759,57.278C100.044,58.747 98.906,60.107 97.22,60.316C95.535,60.525 93.936,59.504 93.651,58.035C93.367,56.566 94.505,55.205 96.19,54.997Z" style="fill:rgb(244,168,126);"/>
            <path d="M96.15,55.054C97.782,54.851 99.33,55.837 99.606,57.259C99.882,58.68 98.781,59.997 97.149,60.2C95.517,60.404 93.969,59.417 93.694,57.995C93.418,56.574 94.519,55.257 96.15,55.054Z" style="fill:rgb(244,168,125);"/>
            <path d="M96.111,55.111C97.688,54.913 99.186,55.866 99.452,57.24C99.72,58.614 98.656,59.887 97.078,60.084C95.5,60.282 94.003,59.33 93.736,57.956C93.469,56.582 94.533,55.309 96.111,55.111Z" style="fill:rgb(243,166,124);"/>
            <path d="M96.071,55.169C97.595,54.977 99.041,55.895 99.299,57.221C99.558,58.547 98.53,59.777 97.006,59.969C95.483,60.161 94.037,59.242 93.779,57.917C93.52,56.59 94.548,55.36 96.071,55.169Z" style="fill:rgb(243,164,124);"/>
            <path d="M96.032,55.226C97.502,55.04 98.897,55.924 99.146,57.202C99.396,58.481 98.405,59.667 96.936,59.853C95.466,60.04 94.071,59.155 93.821,57.877C93.571,56.599 94.562,55.412 96.032,55.226Z" style="fill:rgb(244,163,122);"/>
            <path d="M95.992,55.283C97.408,55.103 98.752,55.953 98.993,57.183C99.234,58.414 98.28,59.557 96.864,59.738C95.449,59.918 94.104,59.068 93.863,57.837C93.623,56.607 94.577,55.464 95.992,55.283Z" style="fill:rgb(244,162,121);"/>
            <path d="M95.953,55.341C97.315,55.166 98.608,55.982 98.84,57.164C99.072,58.347 98.155,59.448 96.793,59.622C95.432,59.797 94.138,58.981 93.906,57.798C93.674,56.615 94.591,55.516 95.953,55.341Z" style="fill:rgb(243,160,120);"/>
            <path d="M95.913,55.397C97.221,55.228 98.463,56.01 98.687,57.145C98.91,58.28 98.029,59.337 96.722,59.506C95.414,59.675 94.172,58.893 93.948,57.758C93.725,56.623 94.605,55.567 95.913,55.397Z" style="fill:rgb(243,158,120);"/>
            <path d="M95.873,55.455C97.127,55.291 98.318,56.039 98.533,57.126C98.748,58.214 97.904,59.227 96.651,59.39C95.397,59.554 94.205,58.806 93.991,57.719C93.776,56.631 94.62,55.618 95.873,55.455Z" style="fill:rgb(243,157,119);"/>
            <path d="M95.834,55.512C97.034,55.355 98.174,56.068 98.38,57.108C98.586,58.147 97.779,59.117 96.579,59.275C95.38,59.432 94.239,58.718 94.033,57.679C93.827,56.64 94.634,55.67 95.834,55.512Z" style="fill:rgb(242,156,117);"/>
            <path d="M95.794,55.57C96.94,55.418 98.029,56.098 98.227,57.089C98.424,58.08 97.654,59.007 96.508,59.159C95.363,59.311 94.273,58.631 94.076,57.64C93.879,56.649 94.649,55.722 95.794,55.57Z" style="fill:rgb(242,154,116);"/>
            <path d="M95.755,55.627C96.847,55.481 97.885,56.126 98.074,57.07C98.262,58.014 97.529,58.897 96.437,59.044C95.346,59.19 94.307,58.544 94.118,57.601C93.93,56.657 94.663,55.774 95.755,55.627Z" style="fill:rgb(242,153,117);"/>
            <path d="M95.715,55.685C96.753,55.544 97.741,56.155 97.92,57.051C98.1,57.947 97.404,58.787 96.366,58.928C95.328,59.069 94.34,58.457 94.161,57.561C93.981,56.665 94.678,55.825 95.715,55.685Z" style="fill:rgb(241,151,114);"/>
            <path d="M95.675,55.741C96.659,55.607 97.596,56.184 97.767,57.032C97.938,57.88 97.278,58.677 96.294,58.812C95.311,58.947 94.374,58.369 94.203,57.521C94.032,56.673 94.692,55.876 95.675,55.741Z" style="fill:rgb(240,150,113);"/>
            <path d="M95.636,55.799C96.566,55.669 97.451,56.213 97.614,57.013C97.776,57.814 97.153,58.567 96.224,58.696C95.294,58.825 94.408,58.282 94.246,57.482C94.083,56.681 94.706,55.928 95.636,55.799Z" style="fill:rgb(240,149,113);"/>
            <path d="M95.596,55.856C96.472,55.733 97.307,56.242 97.461,56.995C97.614,57.747 97.028,58.457 96.152,58.581C95.277,58.704 94.441,58.195 94.288,57.443C94.134,56.69 94.721,55.98 95.596,55.856Z" style="fill:rgb(240,147,112);"/>
            <path d="M95.557,55.914C96.378,55.796 97.163,56.271 97.307,56.976C97.452,57.681 96.903,58.347 96.081,58.465C95.259,58.583 94.475,58.108 94.33,57.403C94.186,56.698 94.735,56.032 95.557,55.914Z" style="fill:rgb(240,146,111);"/>
            <path d="M95.517,55.971C96.285,55.859 97.018,56.3 97.154,56.957C97.29,57.614 96.777,58.237 96.01,58.349C95.242,58.462 94.509,58.02 94.373,57.364C94.237,56.706 94.75,56.083 95.517,55.971Z" style="fill:rgb(240,145,110);"/>
            <path d="M95.477,56.028C96.191,55.922 96.874,56.329 97.001,56.938C97.128,57.547 96.652,58.127 95.939,58.233C95.225,58.34 94.543,57.933 94.415,57.324C94.288,56.715 94.764,56.135 95.477,56.028Z" style="fill:rgb(240,143,110);"/>
            <path d="M95.438,56.086C96.098,55.985 96.729,56.358 96.848,56.919C96.966,57.48 96.527,58.017 95.867,58.117C95.208,58.218 94.576,57.846 94.458,57.284C94.339,56.723 94.778,56.187 95.438,56.086Z" style="fill:rgb(239,142,109);"/>
            <path d="M95.398,56.143C96.004,56.048 96.585,56.387 96.694,56.9C96.805,57.414 96.402,57.907 95.796,58.002C95.191,58.098 94.61,57.759 94.5,57.245C94.39,56.731 94.793,56.238 95.398,56.143Z" style="fill:rgb(238,140,108);"/>
            <path d="M95.359,56.2C95.911,56.111 96.44,56.416 96.541,56.882C96.642,57.347 96.277,57.797 95.725,57.886C95.174,57.976 94.644,57.671 94.543,57.206C94.442,56.74 94.807,56.29 95.359,56.2Z" style="fill:rgb(239,138,106);"/>
            <path d="M95.319,56.258C95.817,56.174 96.296,56.445 96.388,56.863C96.48,57.281 96.152,57.687 95.654,57.771C95.156,57.855 94.678,57.584 94.585,57.166C94.493,56.748 94.822,56.342 95.319,56.258Z" style="fill:rgb(238,138,106);"/>
            <path d="M95.28,56.315C95.723,56.237 96.151,56.474 96.235,56.844C96.318,57.214 96.026,57.577 95.583,57.655C95.139,57.733 94.711,57.497 94.628,57.127C94.544,56.756 94.836,56.393 95.28,56.315Z" style="fill:rgb(238,135,105);"/>
            <path d="M95.24,56.372C95.63,56.3 96.007,56.503 96.082,56.825C96.157,57.147 95.901,57.467 95.511,57.54C95.122,57.612 94.745,57.409 94.67,57.087C94.595,56.765 94.85,56.445 95.24,56.372Z" style="fill:rgb(238,134,104);"/>
            <path d="M95.2,56.43C95.536,56.363 95.862,56.532 95.928,56.806C95.994,57.081 95.776,57.358 95.44,57.424C95.105,57.491 94.779,57.322 94.712,57.048C94.646,56.773 94.865,56.496 95.2,56.43Z" style="fill:rgb(237,132,103);"/>
            <path d="M95.161,56.487C95.443,56.426 95.718,56.56 95.775,56.787C95.833,57.014 95.651,57.247 95.369,57.308C95.088,57.369 94.812,57.235 94.755,57.008C94.698,56.781 94.879,56.548 95.161,56.487Z" style="fill:rgb(237,130,102);"/>
            <path d="M95.121,56.545C95.349,56.489 95.573,56.589 95.622,56.768C95.671,56.947 95.525,57.137 95.298,57.193C95.07,57.248 94.846,57.148 94.797,56.969C94.749,56.79 94.894,56.6 95.121,56.545Z" style="fill:rgb(237,128,101);"/>
            <path d="M123.179,44.362C123.179,44.362 121.848,41.443 121.043,38.708C120.238,35.973 118.127,33.949 118.127,33.949C118.127,33.949 108.509,39.003 105.844,38.749C103.179,38.494 112.118,28.65 112.118,28.65L104.755,36.418L103.996,37.465C103.996,37.465 99.877,41.198 98.588,40.955C97.299,40.711 101.307,32.049 101.307,32.049C101.307,32.049 97.666,41.46 90.596,43.516C87.949,44.286 88.688,42.202 89.183,39.925C90.008,36.122 92.896,30.598 98.271,28.278C106.864,24.57 116.245,25.134 118.557,26.874C120.868,28.615 125.621,38.187 123.179,44.362Z" style="fill:rgb(235,164,105);"/>
            <path d="M124.531,45.912C124.199,46.018 123.419,46.086 122.604,42.186C121.935,38.983 121.485,36.002 118.325,32.813C116.768,34.701 100.103,42.686 103.581,36.855C103.581,36.855 100.154,40.488 98.588,40.955C97.021,41.421 97.966,36.518 97.966,36.518C95.187,42.176 84.947,47.898 87.751,40.748C85.792,44.115 84.611,32.208 94.373,26.354C99.553,23.249 112.659,20.96 118.05,25.293C118.05,25.293 117.145,21.779 118.189,21.845C119.233,21.912 119.69,25.27 119.69,25.27C119.69,25.27 120.547,23.389 120.956,24.096C121.366,24.804 120.377,25.816 120.377,25.816C120.377,25.816 126.203,27.815 127.834,33.461C129.465,39.107 127.886,42.669 127.886,42.669C124.379,41.578 125.13,45.719 124.531,45.912Z" style="fill:rgb(94,35,45);"/>
            <path d="M87.132,35.293C87.58,33.95 88.262,32.508 89.244,31.105C96.415,34.1 114.963,23.707 127.438,32.341C127.588,32.698 127.721,33.07 127.834,33.461C127.909,33.721 127.978,33.978 128.04,34.229C125.476,32.982 121.627,30.693 116.207,30.75C108.251,30.835 93.708,37.576 87.132,35.293Z" style="fill:rgb(115,44,53);"/>
            <path d="M116.354,44.961C114.343,43.668 111.105,44.241 110.255,45.823C109.312,47.578 109.064,45.938 109.861,44.889C110.54,43.995 111.818,43.36 113.034,43.335C114.411,43.306 116.465,43.772 117.179,45.225C117.561,46.004 116.919,45.325 116.354,44.961Z" style="fill:rgb(73,43,41);"/>
            <path d="M92.658,51.699C93.708,49.404 96.238,48.734 98.265,49.968C98.706,50.236 99.288,50.153 98.614,49.333C97.497,47.978 95.587,48.078 94.106,48.885C92.888,49.549 92.106,50.777 92.111,52.334C92.114,53.2 92.385,52.297 92.658,51.699Z" style="fill:rgb(73,43,41);"/>
            <path d="M102.402,59.525C102.938,60.133 104.57,61.057 107.156,60.418C109.409,59.862 110.675,58.341 111.046,57.331C111.272,56.717 111.087,56.217 110.8,56.679C108.308,60.695 103.779,59.799 102.722,59.211C102.323,58.988 102.075,59.155 102.402,59.525Z" style="fill:rgb(175,34,40);"/>
        </g>
    </g>
</svg>
